<svg width="570" height="110" viewBox="0 0 570 110" fill="none" xmlns="http://www.w3.org/2000/svg">
<path fill-rule="evenodd" clip-rule="evenodd" d="M0 87.1927H2.68235C26.4324 87.1927 75.3032 93.1073 121.712 90.2113C186.458 86.1712 222.657 77.631 285 59.6899C342.314 43.1961 380 18.4884 427.5 4.7617C475 -8.96503 546.25 11.3515 546.25 11.3515L570 19.3811V90C570 101.046 561.046 110 550 110H546.25C522.5 110 475 110 427.5 110C380 110 332.5 110 285 110C237.5 110 190 110 142.5 110C95 110 47.5 110 23.75 110H20C8.95431 110 0 101.046 0 90V87.1927Z" fill="#4887B1"/>
</svg>
