<svg width="570" height="112" viewBox="0 0 570 112" fill="none" xmlns="http://www.w3.org/2000/svg">
<path fill-rule="evenodd" clip-rule="evenodd" d="M0 29.7438L19 41.1683C38 52.5927 76 75.4417 114 86.8662C152 98.2906 190 98.2906 228 91.436C266 84.5813 304 70.8719 342 52.5927C380 34.3136 418 11.4646 456 2.32507C494 -6.8145 515.804 12.3858 545 35.5779C555.781 44.1417 570 60.5425 570 60.5425V93C570 103.493 561.493 112 551 112C532 112 494 112 456 112C418 112 380 112 342 112C304 112 266 112 228 112C190 112 152 112 114 112C76 112 38 112 19 112C8.50659 112 0 103.493 0 93V29.7438Z" fill="#4887B1"/>
</svg>
