<svg width="570" height="73" viewBox="0 0 570 73" fill="none" xmlns="http://www.w3.org/2000/svg">
<path fill-rule="evenodd" clip-rule="evenodd" d="M0 24.7138L19 31.4202C38 38.1266 76 51.5395 114 58.2459C152 64.9523 190 64.9523 228 60.9285C266 56.9046 304 48.8569 342 38.1266C380 27.3964 418 8.25166 456 2.88653C494 -2.4786 517.846 -1.55811 551 16.0009C558.77 20.1162 570 28.1068 570 28.1068V54C570 64.4934 561.493 73 551 73C532 73 494 73 456 73C418 73 380 73 342 73C304 73 266 73 228 73C190 73 152 73 114 73C76 73 38 73 19 73C8.50659 73 0 64.4934 0 54V24.7138Z" fill="#4887B1"/>
</svg>
