<svg width="570" height="50" viewBox="0 0 570 50" fill="none" xmlns="http://www.w3.org/2000/svg">
<path fill-rule="evenodd" clip-rule="evenodd" d="M570 17.4983C570 17.4983 555.641 12.5306 546.25 9.99883C501.396 -2.09367 475 -1.58454 427.5 2.99879C380 7.58212 332.5 29.8332 285 28.9166C237.5 27.9999 190 22.4999 142.5 21.5832C95 20.6666 47.5 24.3332 23.75 26.1666L0 27.9999V29.9999C0 41.0456 8.95428 49.9999 20 49.9999H23.75C47.5 49.9999 95 49.9999 142.5 49.9999C190 49.9999 237.5 49.9999 285 49.9999C332.5 49.9999 380 49.9999 427.5 49.9999C475 49.9999 522.5 49.9999 546.25 49.9999H550C561.046 49.9999 570 41.0456 570 29.9999V17.4983Z" fill="#4887B1"/>
</svg>
