<svg width="570" height="77" viewBox="0 0 570 77" fill="none" xmlns="http://www.w3.org/2000/svg">
<path fill-rule="evenodd" clip-rule="evenodd" d="M570 53.7095C570 53.7095 558.394 41.0821 549.5 34.1616C529.001 18.2109 521.096 12.99 487 4.63394C419.001 -12.0308 363.414 20.5835 285 34.1618C229.077 43.8457 190 57.2129 142.5 61.61C95 66.0071 68.0834 70.7628 23.75 59.4114C14.2894 56.9891 0 52.0459 0 52.0459V57C0 68.0457 8.95428 77 20 77H23.75C47.5 77 95 77 142.5 77C190 77 237.5 77 285 77C332.5 77 380 77 427.5 77C475 77 522.5 77 546.25 77H550C561.046 77 570 68.0457 570 57V53.7095Z" fill="#4887B1"/>
</svg>
